<svg xmlns="http://www.w3.org/2000/svg" xmlns:xlink="http://www.w3.org/1999/xlink" width="958" height="564" viewBox="0 0 958 564">
  <defs>
    <circle id="hero-a" cx="134" cy="6" r="6"/>
    <circle id="hero-b" cx="422" cy="422" r="6"/>
    <circle id="hero-c" cx="422" cy="390" r="6"/>
    <circle id="hero-d" cx="454" cy="390" r="6"/>
    <circle id="hero-e" cx="70" cy="6" r="6"/>
    <circle id="hero-f" cx="38" cy="6" r="6"/>
    <circle id="hero-g" cx="6" cy="6" r="6"/>
    <circle id="hero-h" cx="38" cy="70" r="6"/>
    <circle id="hero-i" cx="38" cy="38" r="6"/>
    <circle id="hero-j" cx="70" cy="38" r="6"/>
    <circle id="hero-k" cx="70" cy="70" r="6"/>
    <circle id="hero-l" cx="102" cy="70" r="6"/>
    <circle id="hero-m" cx="102" cy="38" r="6"/>
    <circle id="hero-n" cx="6" cy="38" r="6"/>
  </defs>
  <g fill="none" fill-rule="evenodd">
    <path fill="#EEE" fill-rule="nonzero" d="M857.333333 381L860 383.666667C866.626667 377.04 877.373333 377.04 884 383.666667L886.666667 381C878.573333 372.906667 865.44 372.906667 857.333333 381zM868 391.666667L872 395.666667 876 391.666667C873.8 389.453333 870.213333 389.453333 868 391.666667zM862.666667 386.333333L865.333333 389C869.013333 385.32 874.986667 385.32 878.666667 389L881.333333 386.333333C876.186667 381.186667 867.826667 381.186667 862.666667 386.333333zM57.3333333 93L60 95.6666667C66.6266667 89.04 77.3733333 89.04 84 95.6666667L86.6666667 93C78.5733333 84.9066667 65.44 84.9066667 57.3333333 93zM68 103.666667L72 107.666667 76 103.666667C73.8 101.453333 70.2133333 101.453333 68 103.666667zM62.6666667 98.3333333L65.3333333 101C69.0133333 97.32 74.9866667 97.32 78.6666667 101L81.3333333 98.3333333C76.1866667 93.1866667 67.8266667 93.1866667 62.6666667 98.3333333zM488 538.333333C484.32 538.333333 481.333333 541.32 481.333333 545 481.333333 548.68 484.32 551.666667 488 551.666667 491.68 551.666667 494.666667 548.68 494.666667 545 494.666667 541.32 491.68 538.333333 488 538.333333zM488 531.666667C480.64 531.666667 474.666667 537.64 474.666667 545 474.666667 552.36 480.64 558.333333 488 558.333333 495.36 558.333333 501.333333 552.36 501.333333 545 501.333333 537.64 495.36 531.666667 488 531.666667zM488 555.666667C482.106667 555.666667 477.333333 550.893333 477.333333 545 477.333333 539.106667 482.106667 534.333333 488 534.333333 493.893333 534.333333 498.666667 539.106667 498.666667 545 498.666667 550.893333 493.893333 555.666667 488 555.666667zM945.333333 405L926.666667 405C925.186667 405 924 406.2 924 407.666667L924 426.333333C924 427.8 925.186667 429 926.666667 429L945.333333 429C946.813333 429 948 427.8 948 426.333333L948 407.666667C948 406.2 946.813333 405 945.333333 405zM933.333333 423.666667L926.666667 417 928.546667 415.12 933.333333 419.893333 943.453333 409.773333 945.333333 411.666667 933.333333 423.666667zM392 277.666667C384.64 277.666667 378.666667 283.64 378.666667 291 378.666667 298.36 384.64 304.333333 392 304.333333 399.36 304.333333 405.333333 298.36 405.333333 291 405.333333 283.64 399.36 277.666667 392 277.666667zM392 301.666667C386.106667 301.666667 381.333333 296.893333 381.333333 291 381.333333 285.106667 386.106667 280.333333 392 280.333333 397.893333 280.333333 402.666667 285.106667 402.666667 291 402.666667 296.893333 397.893333 301.666667 392 301.666667z"/>
    <path fill="#EEE" d="M72.6568988 490.962453L72.6568988 506.955611C72.6568988 507.507896 73.1046141 507.955611 73.6568988 507.955611L90.0053398 507.955611C90.5576246 507.955611 91.0053398 508.403326 91.0053398 508.955611 91.0053398 509.132367 90.9584898 509.305965 90.869562 509.458721L74.5211211 537.541402C74.2432609 538.018699 73.6310853 538.180374 73.1537886 537.902514 72.8461415 537.723416 72.6568988 537.394274 72.6568988 537.038292L72.6568988 521.099343C72.6568988 520.547058 72.2091836 520.099343 71.6568988 520.099343L54.9945561 520.099343C54.4422714 520.099343 53.9945561 519.651627 53.9945561 519.099343 53.9945561 518.920055 54.042757 518.744065 54.1341121 518.589798L70.7964549 490.452908C71.0778688 489.977698 71.6912338 489.820595 72.1664439 490.102009 72.4704544 490.282041 72.6568988 490.609135 72.6568988 490.962453zM209.599485 109C210.463683 109 211.261151 109.464618 211.687338 110.216417L221.687879 127.85749C222.104865 128.593059 222.104021 129.493782 221.685656 130.228568L211.688127 147.787496C211.261327 148.537096 210.465086 149 209.602497 149L189.661335 149C188.808412 149 188.019569 148.547327 187.589223 147.81093L177.327862 130.251951C176.891501 129.505262 176.890623 128.581548 177.325565 127.834031L187.589959 110.193009C188.019724 109.454389 188.809817 109 189.664368 109L209.599485 109zM200.053559 138.253731C205.205415 138.253731 209.381819 134.110695 209.381819 129 209.381819 123.889305 205.205415 119.746269 200.053559 119.746269 194.901704 119.746269 190.7253 123.889305 190.7253 129 190.7253 134.110695 194.901704 138.253731 200.053559 138.253731zM945.599485 173C946.463683 173 947.261151 173.464618 947.687338 174.216417L957.687879 191.85749C958.104865 192.593059 958.104021 193.493782 957.685656 194.228568L947.688127 211.787496C947.261327 212.537096 946.465086 213 945.602497 213L925.661335 213C924.808412 213 924.019569 212.547327 923.589223 211.81093L913.327862 194.251951C912.891501 193.505262 912.890623 192.581548 913.325565 191.834031L923.589959 174.193009C924.019724 173.454389 924.809817 173 925.664368 173L945.599485 173zM936.053559 202.253731C941.205415 202.253731 945.381819 198.110695 945.381819 193 945.381819 187.889305 941.205415 183.746269 936.053559 183.746269 930.901704 183.746269 926.7253 187.889305 926.7253 193 926.7253 198.110695 930.901704 202.253731 936.053559 202.253731zM782.851628 115C783.707264 115 784.498189 115.455533 784.927563 116.195636L791.673566 127.823565C792.106469 128.56975 792.105595 129.490867 791.671277 130.23623L784.928304 141.808301C784.498345 142.546182 783.708668 143 782.854658 143L769.3234 143C768.479154 143 767.696997 142.556416 767.263665 141.831864L760.342735 130.259742C759.889898 129.502577 759.888991 128.558006 760.340372 127.799973L767.264351 116.172095C767.697131 115.445299 768.480558 115 769.326449 115L782.851628 115zM776.393695 135.477612C780.084383 135.477612 783.076277 132.577486 783.076277 129 783.076277 125.422514 780.084383 122.522388 776.393695 122.522388 772.703006 122.522388 769.711112 125.422514 769.711112 129 769.711112 132.577486 772.703006 135.477612 776.393695 135.477612zM526.851628 435C527.707264 435 528.498189 435.455533 528.927563 436.195636L535.673566 447.823565C536.106469 448.56975 536.105595 449.490867 535.671277 450.23623L528.928304 461.808301C528.498345 462.546182 527.708668 463 526.854658 463L513.3234 463C512.479154 463 511.696997 462.556416 511.263665 461.831864L504.342735 450.259742C503.889898 449.502577 503.888991 448.558006 504.340372 447.799973L511.264351 436.172095C511.697131 435.445299 512.480558 435 513.326449 435L526.851628 435zM520.393695 455.477612C524.084383 455.477612 527.076277 452.577486 527.076277 449 527.076277 445.422514 524.084383 442.522388 520.393695 442.522388 516.703006 442.522388 513.711112 445.422514 513.711112 449 513.711112 452.577486 516.703006 455.477612 520.393695 455.477612zM238.851628 345C239.707264 345 240.498189 345.455533 240.927563 346.195636L247.673566 357.823565C248.106469 358.56975 248.105595 359.490867 247.671277 360.23623L240.928304 371.808301C240.498345 372.546182 239.708668 373 238.854658 373L225.3234 373C224.479154 373 223.696997 372.556416 223.263665 371.831864L216.342735 360.259742C215.889898 359.502577 215.888991 358.558006 216.340372 357.799973L223.264351 346.172095C223.697131 345.445299 224.480558 345 225.326449 345L238.851628 345zM232.393695 365.477612C236.084383 365.477612 239.076277 362.577486 239.076277 359 239.076277 355.422514 236.084383 352.522388 232.393695 352.522388 228.703006 352.522388 225.711112 355.422514 225.711112 359 225.711112 362.577486 228.703006 365.477612 232.393695 365.477612z"/>
    <path fill="#EEE" fill-rule="nonzero" d="M449.5,490.916667 L455.166667,490.916667 L455.166667,471.083333 L449.5,471.083333 L449.5,490.916667 Z M460.833333,471.083333 L460.833333,490.916667 L466.5,490.916667 L466.5,471.083333 L460.833333,471.083333 Z"/>
    <polygon fill="#EEE" fill-rule="nonzero" points="576 115 576 143 598 129"/>
    <polygon fill="#EEE" fill-rule="nonzero" points="0 277 0 305 22 291"/>
    <g stroke="#EEE" stroke-linecap="round" stroke-linejoin="round" stroke-width="2" transform="translate(33)">
      <polyline points="199 385 199 417 39 417 39 481"/>
      <polyline points="328 225 391 225 391 160"/>
      <path d="M456,97 L456,1"/>
      <polyline points="902.986 396 903 351.755 913 342.773 893 339.778 913 332.792 893 329.798 902.986 321.813 903 225"/>
      <polyline points="349.986 534 350 489.806 360 480.834 340 477.843 360 470.865 340 467.874 349.986 459.899 350 427" transform="rotate(90 350 480.5)"/>
      <path d="M423 96.9588015L456 97.0411985M0 291L336 291M576 129L711 129"/>
      <polyline points="903 439 903 481 712 481 712 545 775.018 545"/>
      <polyline points="839 66 807 66 807 0"/>
      <path d="M294.5 97L328.5 97M325.5 97L359.5 97M326.5 129L360.5 129M295 129L327 161M356.5 129L390.5 129M391 161L391 129M359 161L359 129"/>
    </g>
    <g transform="translate(322 91)">
      <use fill="#FAFBFC" xlink:href="#hero-a"/>
      <circle cx="134" cy="6" r="5" stroke="#EEE" stroke-width="2"/>
      <use fill="#FAFBFC" xlink:href="#hero-b"/>
      <circle cx="422" cy="422" r="5" stroke="#EEE" stroke-width="2"/>
      <use fill="#FAFBFC" xlink:href="#hero-c"/>
      <circle cx="422" cy="390" r="5" stroke="#EEE" stroke-width="2"/>
      <use fill="#FAFBFC" xlink:href="#hero-d"/>
      <circle cx="454" cy="390" r="5" stroke="#EEE" stroke-width="2"/>
      <circle cx="6" cy="38" r="6" fill="#DDD"/>
      <circle cx="6" cy="6" r="6" fill="#DDD"/>
      <use fill="#FAFBFC" xlink:href="#hero-e"/>
      <circle cx="70" cy="6" r="5" stroke="#EEE" stroke-width="2"/>
      <use fill="#FAFBFC" xlink:href="#hero-f"/>
      <circle cx="38" cy="6" r="5" stroke="#EEE" stroke-width="2"/>
      <use fill="#FAFBFC" xlink:href="#hero-g"/>
      <circle cx="6" cy="6" r="5" stroke="#EEE" stroke-width="2"/>
      <use fill="#FAFBFC" xlink:href="#hero-h"/>
      <circle cx="38" cy="70" r="5" stroke="#EEE" stroke-width="2"/>
      <use fill="#FAFBFC" xlink:href="#hero-i"/>
      <circle cx="38" cy="38" r="5" stroke="#EEE" stroke-width="2"/>
      <use fill="#FAFBFC" xlink:href="#hero-j"/>
      <circle cx="70" cy="38" r="5" stroke="#EEE" stroke-width="2"/>
      <use fill="#FAFBFC" xlink:href="#hero-k"/>
      <circle cx="70" cy="70" r="5" stroke="#EEE" stroke-width="2"/>
      <use fill="#FAFBFC" xlink:href="#hero-l"/>
      <circle cx="102" cy="70" r="5" stroke="#EEE" stroke-width="2"/>
      <g>
        <use fill="#FAFBFC" xlink:href="#hero-m"/>
        <circle cx="102" cy="38" r="5" stroke="#EEE" stroke-width="2"/>
      </g>
      <g>
        <use fill="#FAFBFC" xlink:href="#hero-n"/>
        <circle cx="6" cy="38" r="5" stroke="#EEE" stroke-width="2"/>
      </g>
      <circle cx="6" cy="70" r="6" fill="#EEE"/>
      <circle cx="134" cy="70" r="6" fill="#EEE"/>
      <circle cx="102" cy="6" r="6" fill="#EEE"/>
      <circle cx="134" cy="38" r="6" fill="#EEE"/>
      <circle cx="390" cy="422" r="6" fill="#EEE"/>
      <circle cx="390" cy="358" r="6" fill="#EEE"/>
      <circle cx="390" cy="390" r="6" fill="#EEE"/>
      <circle cx="422" cy="358" r="6" fill="#EEE"/>
      <circle cx="454" cy="422" r="6" fill="#EEE"/>
      <circle cx="454" cy="358" r="6" fill="#EEE"/>
    </g>
    <g fill-rule="nonzero" transform="translate(890 50)">
      <polygon fill="#EEE" points="14.222 0 28.444 7.996 28.444 23.993 14.222 31.989 0 23.993 0 7.996"/>
      <path fill="#FAFBFC" d="M25.9050244 23.4410959L14.6926213 29.7461187 14.6926213 24.8365297 21.6787827 21.0155251 25.9050244 23.4410959zM26.6730979 22.7506849L26.6730979 9.56712329 22.5718059 11.9232877 22.5718059 20.3981735 26.6730979 22.7506849zM2.49532013 23.4410959L13.7077232 29.7461187 13.7077232 24.8365297 6.71788688 21.0155251 2.49532013 23.4410959zM1.72724663 22.7506849L1.72724663 9.56712329 5.82853862 11.9232877 5.82853862 20.3981735 1.72724663 22.7506849zM2.20867069 8.71232877L13.7077232 2.24657534 13.7077232 6.99178082 6.33936262 11.0210046 6.28056273 11.0538813C6.28056273 11.0538813 2.20867069 8.71232877 2.20867069 8.71232877zM26.1916738 8.71232877L14.6926213 2.24657534 14.6926213 6.99178082 22.0609819 11.0173516 22.1197818 11.0502283 26.1916738 8.71232877zM13.7077232 23.7187215L6.81343669 19.9488584 6.81343669 12.4858447 13.7077232 16.4420091 13.7077232 23.7187215zM14.6926213 23.7187215L21.5869078 19.9525114 21.5869078 12.4858447 14.6926213 16.4420091 14.6926213 23.7187215zM7.28016078 11.6237443L14.2001723 7.84292237 21.1201837 11.6237443 14.2001723 15.5945205 7.28016078 11.6237443z"/>
    </g>
    <g fill="#EEE" fill-rule="nonzero" transform="translate(819 526)">
      <path d="M30.5,35.454 C27.37,37.262 20.207,31.627 14.938,22.5 C9.668,13.373 8.368,4.353 11.5,2.546 C14.63,0.738 21.793,6.373 27.062,15.5 C32.332,24.627 33.632,33.647 30.5,35.454 Z M31.5,37.187 C36.022,34.577 34.57,24.505 28.794,14.5 C23.018,4.495 15.022,-1.797 10.5,0.813 C5.978,3.423 7.43,13.495 13.206,23.5 C18.982,33.505 26.978,39.797 31.5,37.187 Z"/>
      <path d="M0,19 C0,24.22 9.448,28 21,28 C32.552,28 42,24.22 42,19 C42,13.78 32.552,10 21,10 C9.448,10 0,13.78 0,19 Z M2,19 C2,15.384 10.46,12 21,12 C31.54,12 40,15.384 40,19 C40,22.616 31.54,26 21,26 C10.46,26 2,22.616 2,19 Z"/>
      <path d="M28.794,23.5 C34.57,13.495 36.022,3.424 31.5,0.813 C26.978,-1.797 18.982,4.495 13.206,14.5 C7.43,24.505 5.978,34.576 10.5,37.187 C15.022,39.797 23.018,33.505 28.794,23.5 Z M14.938,15.5 C20.208,6.373 27.368,0.738 30.5,2.546 C33.63,4.353 32.332,13.373 27.062,22.5 C21.792,31.627 14.632,37.262 11.5,35.454 C8.37,33.647 9.668,24.627 14.938,15.5 Z"/>
      <rect width="8" height="8" x="17" y="15" rx="4"/>
    </g>
  </g>
</svg>
